<svg width="255" height="58" viewBox="0 0 255 58" fill="none" xmlns="http://www.w3.org/2000/svg">
<g clip-path="url(#clip0_3994_99015)">
<rect x="0.5" width="254" height="58" rx="12" fill="url(#paint0_linear_3994_99015)"/>
<path d="M151.983 33.4179C153.191 30.4951 154.759 27.7595 156.632 25.2661C152.099 21.8604 149.167 16.4392 149.167 10.3333C149.167 0.0239315 157.525 -8.33342 167.834 -8.33342C169.444 -8.33342 171.006 -8.12967 172.496 -7.74649C174.095 -10.6294 176.064 -13.2784 178.34 -15.6292C175.096 -16.9431 171.549 -17.6667 167.834 -17.6667C152.37 -17.6667 139.834 -5.13073 139.834 10.3333C139.834 19.913 144.645 28.3694 151.983 33.4179Z" fill="white" fill-opacity="0.8"/>
<path d="M167.834 10.3336C167.834 7.76281 168.093 5.25275 168.588 2.82818L167.834 2.07349L159.584 10.3231L167.834 18.5726L168.585 17.8215C168.092 15.4024 167.834 12.8982 167.834 10.3336ZM197.48 17.3336H212.852L214.499 14.863L206.813 3.33358H203.519L195.833 14.863L197.48 17.3336Z" fill="white" fill-opacity="0.8"/>
<path d="M205.166 -8.33341C194.857 -8.33341 186.499 0.0239334 186.499 10.3333C183.285 10.3333 180.166 10.7394 177.19 11.5032C177.174 11.1152 177.166 10.7252 177.166 10.3333C177.166 -5.13073 189.702 -17.6667 205.166 -17.6667C220.63 -17.6667 233.166 -5.13073 233.166 10.3333C233.166 19.913 228.355 28.3695 221.017 33.4179C219.81 30.4951 218.242 27.7595 216.368 25.2661C220.901 21.8604 223.833 16.4392 223.833 10.3333C223.833 0.0239334 215.475 -8.33341 205.166 -8.33341ZM194.583 42.9999L186.5 38.3333L178.417 42.9999V52.3333L186.5 56.9999L194.583 52.3333V42.9999Z" fill="white" fill-opacity="0.8"/>
<path fill-rule="evenodd" clip-rule="evenodd" d="M158.5 47.6667C158.5 32.2028 171.036 19.6667 186.5 19.6667C201.964 19.6667 214.5 32.2028 214.5 47.6667C214.5 63.1307 201.964 75.6667 186.5 75.6667C171.036 75.6667 158.5 63.1307 158.5 47.6667ZM186.5 29.0001C176.191 29.0001 167.833 37.3576 167.833 47.6667C167.833 57.9759 176.191 66.3334 186.5 66.3334C196.809 66.3334 205.167 57.9759 205.167 47.6667C205.167 37.3576 196.809 29.0001 186.5 29.0001Z" fill="white" fill-opacity="0.8"/>
</g>
<defs>
<linearGradient id="paint0_linear_3994_99015" x1="0.5" y1="29" x2="254.5" y2="29" gradientUnits="userSpaceOnUse">
<stop stop-color="#FFF0F6"/>
<stop offset="1" stop-color="#FCE5EE"/>
</linearGradient>
<clipPath id="clip0_3994_99015">
<rect x="0.5" width="254" height="58" rx="12" fill="white"/>
</clipPath>
</defs>
</svg>
