<svg width="19" height="18" viewBox="0 0 19 18" fill="none" xmlns="http://www.w3.org/2000/svg">
<path d="M18.3545 9.00602C18.3545 13.9764 14.7426 18.0059 10.2869 18.0059C5.83116 18.0059 2.21973 13.9764 2.21973 9.00602C2.21973 4.03562 5.83168 0.00585938 10.2869 0.00585938C14.7421 0.00585938 18.3545 4.03541 18.3545 9.00602Z" fill="url(#paint0_linear_4006_4915)"/>
<path d="M10.2869 0.00585938C5.83169 0.00585938 2.21973 4.03541 2.21973 9.00602C2.21973 13.9766 5.83169 18.0059 10.2869 18.0059C14.7421 18.0059 18.3545 13.9764 18.3545 9.00602C18.3545 4.03562 14.7426 0.00585938 10.2869 0.00585938ZM10.2869 17.8575C5.90522 17.8575 2.35259 13.8943 2.35259 9.00602C2.35259 4.1177 5.90528 0.15424 10.2869 0.15424C14.6685 0.15424 18.2214 4.11744 18.2214 9.00602C18.2214 13.8946 14.6689 17.8575 10.2869 17.8575Z" fill="#FDDF00"/>
<path d="M2.21937 9.00602C2.21937 4.17462 5.6605 0.232831 9.97921 0.0157029C9.84255 0.00950524 9.70536 0.00585938 9.56735 0.00585938C4.73059 0.00585938 0.644531 3.63563 0.644531 9.00602C0.644531 14.2449 4.54268 18.0059 9.56735 18.0059C9.70536 18.0059 9.84255 18.0023 9.97921 17.9959C5.6605 17.7788 2.21937 13.837 2.21937 9.00602Z" fill="url(#paint1_linear_4006_4915)"/>
<path d="M11.1007 16.0628C11.1007 16.0628 12.1743 17.5313 10.8224 17.5076C6.28924 17.4281 2.78223 13.7074 2.78223 9.01911C2.78223 4.33084 6.372 0.406754 10.8224 0.531073C10.8224 0.531073 11.6796 0.37337 11.6963 1.40766C11.7045 1.91274 10.6621 3.54191 10.033 5.99349L8.44541 4.50718C8.18969 4.26745 7.86018 4.13532 7.51836 4.13532C6.76016 4.13532 6.14305 4.75025 6.14305 5.50512V7.47385C6.14305 8.10289 6.65298 8.61319 7.28275 8.61319H9.00878C9.13904 8.61319 9.24409 8.71897 9.24409 8.84922C9.24409 8.85219 9.24409 8.85589 9.24336 8.85922C9.24148 8.92047 9.21591 8.975 9.17544 9.01583C9.13279 9.05812 9.07378 9.08447 9.00883 9.08447H7.2828C6.65303 9.08447 6.1431 9.59477 6.1431 10.2245V12.1925C6.1431 12.9481 6.76026 13.5623 7.51842 13.5623C7.68987 13.5623 7.85762 13.529 8.0146 13.4666C8.17193 13.4032 8.31782 13.3107 8.44547 13.1913L9.6523 11.8159C9.6523 11.8159 9.70204 11.8757 9.76808 11.9547C9.9889 13.2418 10.4068 14.6164 11.1007 16.0629L11.1007 16.0628Z" fill="url(#paint2_linear_4006_4915)"/>
<path d="M4.0791 2.23819C4.0791 2.26241 4.10134 2.28199 4.12858 2.28199H4.89501C4.92459 2.25256 4.95428 2.2234 4.98433 2.19434H4.12858C4.10134 2.19434 4.0791 2.21392 4.0791 2.23819Z" fill="url(#paint3_linear_4006_4915)"/>
<path d="M1.84082 4.95499C1.84082 4.9792 1.86306 4.99879 1.8904 4.99879H3.03672C3.04984 4.96946 3.06323 4.94035 3.07661 4.91113H1.8904C1.86306 4.91113 1.84082 4.93072 1.84082 4.95499Z" fill="url(#paint4_linear_4006_4915)"/>
<path d="M1.44434 5.9022C1.44434 5.92642 1.46657 5.94605 1.49397 5.94605H2.67481C2.68424 5.91668 2.6944 5.88762 2.70408 5.8584H1.49397C1.46663 5.8584 1.44434 5.87803 1.44434 5.9022Z" fill="url(#paint5_linear_4006_4915)"/>
<path d="M1.15723 6.89932C1.15723 6.92354 1.17947 6.94312 1.20686 6.94312H2.4126C2.41875 6.91385 2.42505 6.88469 2.43151 6.85547H1.20691C1.17952 6.85547 1.15723 6.8751 1.15723 6.89932Z" fill="url(#paint6_linear_4006_4915)"/>
<path d="M0.943359 7.99893C0.943359 8.02315 0.965598 8.04273 0.992993 8.04273H2.2468C2.24936 8.01346 2.25258 7.9843 2.25555 7.95508H0.992993C0.965598 7.95508 0.943359 7.97471 0.943359 7.99893Z" fill="url(#paint7_linear_4006_4915)"/>
<path d="M0.914062 9.13755C0.914062 9.16182 0.936301 9.1814 0.963696 9.1814H2.20714C2.20647 9.15229 2.20647 9.12292 2.20605 9.09375H0.963696C0.936301 9.09375 0.914062 9.11338 0.914062 9.13755Z" fill="url(#paint8_linear_4006_4915)"/>
<path d="M1.03125 10.1659C1.03125 10.1901 1.05349 10.2097 1.08083 10.2097H2.28168C2.27803 10.1805 2.27433 10.1514 2.27084 10.1221H1.08088C1.05354 10.1221 1.03125 10.1417 1.03125 10.1659Z" fill="url(#paint9_linear_4006_4915)"/>
<path d="M1.24512 11.2167C1.24512 11.2409 1.26746 11.2605 1.29475 11.2605H2.47252C2.46549 11.2313 2.45841 11.2022 2.45174 11.1729H1.29475C1.26741 11.1729 1.24512 11.1924 1.24512 11.2167Z" fill="url(#paint10_linear_4006_4915)"/>
<path d="M1.53228 12.2069C1.53228 12.2311 1.55452 12.2507 1.58186 12.2507H2.76364C2.75328 12.2215 2.74276 12.1924 2.7326 12.1631H1.58181C1.55447 12.1631 1.53223 12.1827 1.53223 12.2069H1.53228Z" fill="url(#paint11_linear_4006_4915)"/>
<path d="M2.00689 13.2216C2.00689 13.2458 2.02913 13.2654 2.05652 13.2654H3.19138C3.177 13.2362 3.16258 13.2071 3.14851 13.1777H2.05647C2.02907 13.1777 2.00689 13.1973 2.00689 13.2216Z" fill="url(#paint12_linear_4006_4915)"/>
<path d="M2.55469 14.1747C2.55469 14.1988 2.57677 14.2185 2.60427 14.2185H3.73168C3.71288 14.1895 3.69454 14.1601 3.67595 14.1309H2.60427C2.57682 14.1309 2.55469 14.1504 2.55469 14.1747Z" fill="url(#paint13_linear_4006_4915)"/>
<path d="M3.36523 15.2616C3.36523 15.2858 3.38752 15.3054 3.41492 15.3054H4.56498C4.53894 15.2764 4.51301 15.2472 4.48738 15.2178H3.41492C3.38752 15.2178 3.36523 15.2374 3.36523 15.2616Z" fill="url(#paint14_linear_4006_4915)"/>
<path d="M4.38379 16.1474C4.38379 16.1716 4.40603 16.1912 4.43337 16.1912H5.48797C5.45292 16.1623 5.41828 16.1329 5.38375 16.1035H4.43337C4.40603 16.1035 4.38379 16.1231 4.38379 16.1474Z" fill="url(#paint15_linear_4006_4915)"/>
<path d="M5.43848 16.8817C5.43848 16.906 5.46071 16.9255 5.48811 16.9255H6.48563C6.45063 16.8967 6.37777 16.8674 6.34318 16.8379H5.48811C5.46071 16.8379 5.43848 16.8575 5.43848 16.8817Z" fill="url(#paint16_linear_4006_4915)"/>
<path d="M4.6748 1.61221C4.6748 1.63648 4.6971 1.65606 4.72444 1.65606H5.59696C5.63425 1.62643 5.67196 1.59742 5.70977 1.56836H4.72444C4.6971 1.56836 4.6748 1.58799 4.6748 1.61221Z" fill="url(#paint17_linear_4006_4915)"/>
<path d="M5.60259 1.13169C5.60259 1.15591 5.62483 1.17554 5.65222 1.17554H6.27002C6.31642 1.14586 6.36303 1.11659 6.40975 1.08789H5.65217C5.62483 1.08789 5.60259 1.10753 5.60259 1.13169Z" fill="url(#paint18_linear_4006_4915)"/>
<path d="M6.55957 0.701079C6.55957 0.725297 6.58191 0.74488 6.6092 0.74488H7.03205C7.09288 0.714829 7.15424 0.685663 7.21575 0.657227H6.6092C6.58186 0.657227 6.55957 0.676861 6.55957 0.701079Z" fill="url(#paint19_linear_4006_4915)"/>
<path d="M3.51074 2.78213C3.51074 2.80635 3.53293 2.82594 3.56038 2.82594H4.39509C4.41983 2.79667 4.4443 2.76719 4.46946 2.73828H3.56038C3.53293 2.73828 3.51074 2.75786 3.51074 2.78213Z" fill="url(#paint20_linear_4006_4915)"/>
<path d="M2.74902 3.4813C2.74902 3.50552 2.77121 3.52515 2.79866 3.52515H3.86154C3.88164 3.49573 3.90247 3.46656 3.92294 3.4375H2.79866C2.77116 3.4375 2.74902 3.45713 2.74902 3.4813Z" fill="url(#paint21_linear_4006_4915)"/>
<path d="M2.20605 4.27432C2.20605 4.29859 2.22835 4.31817 2.25564 4.31817H3.37403C3.39002 4.28896 3.4057 4.25953 3.422 4.23047H2.25564C2.22835 4.23047 2.20605 4.25016 2.20605 4.27432Z" fill="url(#paint22_linear_4006_4915)"/>
<path d="M14.5754 3.52558C14.2611 3.14554 13.798 2.92773 13.3047 2.92773C12.9173 2.92773 12.541 3.06502 12.2441 3.3148L9.60623 6.0833L9.51009 5.99351L7.92249 4.50721C7.66676 4.26748 7.33725 4.13535 6.99543 4.13535C6.23723 4.13535 5.62012 4.75028 5.62012 5.50515V7.47388C5.62012 8.10292 6.13005 8.61321 6.75982 8.61321H8.48585C8.61611 8.61321 8.72116 8.71899 8.72116 8.84925C8.72116 8.85222 8.72116 8.85591 8.72043 8.85925C8.71855 8.9205 8.69298 8.97502 8.65251 9.01586C8.60986 9.05815 8.55085 9.0845 8.4859 9.0845H6.75987C6.1301 9.0845 5.62017 9.59479 5.62017 10.2246V12.1926C5.62017 12.9482 6.23733 13.5624 6.99549 13.5624C7.16694 13.5624 7.33469 13.529 7.49167 13.4666C7.64901 13.4032 7.79489 13.3108 7.92254 13.1913L9.12937 11.816C9.12937 11.816 9.17911 11.8757 9.24515 11.9548C9.37613 12.111 9.57061 12.3437 9.57097 12.3437C9.80216 12.6202 10.033 12.8967 10.2642 13.1735C10.6265 13.607 10.9356 14.0816 11.5175 14.2253C12.1561 14.383 12.7978 14.1614 13.1979 13.6775C13.6818 13.0919 13.6566 12.2988 13.2706 11.6706C13.0342 11.2854 12.6969 10.9821 12.416 10.6337C12.1484 10.3019 11.8812 9.97009 11.614 9.6387L11.3398 9.29803L14.4166 5.79175C15.0657 5.19906 15.1351 4.20378 14.5755 3.52573L14.5754 3.52558Z" fill="url(#paint23_linear_4006_4915)"/>
<path d="M9.76761 11.9542C9.70157 11.8751 9.65183 11.8154 9.65183 11.8154L8.445 13.1907C8.31735 13.3102 8.17147 13.4026 8.01413 13.4661C7.85715 13.5284 7.6894 13.5618 7.51795 13.5618C6.75974 13.5618 6.14263 12.9476 6.14263 12.192V10.224C6.14263 9.59421 6.65256 9.08392 7.28233 9.08392H9.00836C9.07331 9.08392 9.13232 9.05756 9.17497 9.01527C9.21544 8.97444 9.24101 8.91991 9.24289 8.85866C9.24362 8.85533 9.24362 8.85163 9.24362 8.84866C9.24362 8.71841 9.13857 8.61263 9.00831 8.61263H7.28228C6.65251 8.61263 6.14258 8.10234 6.14258 7.4733V5.50456C6.14258 4.74974 6.75974 4.13477 7.51789 4.13477C7.85971 4.13477 8.18923 4.2669 8.44495 4.50663L10.0325 5.99293C9.61022 7.63954 9.37419 9.65692 9.76756 11.9541L9.76761 11.9542Z" fill="url(#paint24_linear_4006_4915)"/>
<path d="M14.9377 5.79165L11.8609 9.29793L12.1351 9.63859C12.4023 9.96999 12.6695 10.3017 12.9371 10.6336C13.218 10.982 13.5553 11.2853 13.7917 11.6705C14.1777 12.2988 14.2029 13.0918 13.719 13.6774C13.3189 14.1614 12.6772 14.3829 12.0386 14.2252C11.4567 14.0815 11.1475 13.6069 10.7853 13.1734C10.5541 12.8966 10.3233 12.6201 10.0921 12.3436C10.0917 12.3436 9.89723 12.1109 9.76624 11.9547C9.37287 9.6575 9.6089 7.64012 10.0312 5.99351L10.1274 6.0833L12.7653 3.3148C13.0621 3.06502 13.4385 2.92773 13.8259 2.92773C14.3191 2.92773 14.7823 3.14559 15.0966 3.52558C15.6562 4.20358 15.5868 5.19891 14.9377 5.79159V5.79165Z" fill="#FBF17C"/>
<defs>
<linearGradient id="paint0_linear_4006_4915" x1="17.2071" y1="4.28847" x2="2.94158" y2="14.0134" gradientUnits="userSpaceOnUse">
<stop stop-color="#F7941D"/>
<stop offset="0.006" stop-color="#F7951C"/>
<stop offset="0.164" stop-color="#FABD10"/>
<stop offset="0.31" stop-color="#FCDA07"/>
<stop offset="0.435" stop-color="#FEEB01"/>
<stop offset="0.527" stop-color="#FFF200"/>
<stop offset="0.65" stop-color="#FEE504"/>
<stop offset="0.873" stop-color="#FCC40F"/>
<stop offset="1" stop-color="#FCAF17"/>
</linearGradient>
<linearGradient id="paint1_linear_4006_4915" x1="15.1515" y1="0.926035" x2="-0.00148654" y2="17.4867" gradientUnits="userSpaceOnUse">
<stop stop-color="#FFF200"/>
<stop offset="1" stop-color="#F58220"/>
</linearGradient>
<linearGradient id="paint2_linear_4006_4915" x1="4.88543" y1="16.2393" x2="13.0171" y2="0.869134" gradientUnits="userSpaceOnUse">
<stop stop-color="#FCB815"/>
<stop offset="1" stop-color="#FBF17C"/>
</linearGradient>
<linearGradient id="paint3_linear_4006_4915" x1="4.0791" y1="2.23819" x2="4.98433" y2="2.23819" gradientUnits="userSpaceOnUse">
<stop stop-color="#FCB815"/>
<stop offset="1" stop-color="#FBF17C"/>
</linearGradient>
<linearGradient id="paint4_linear_4006_4915" x1="1.84082" y1="4.95499" x2="3.07661" y2="4.95499" gradientUnits="userSpaceOnUse">
<stop stop-color="#FCB815"/>
<stop offset="1" stop-color="#FBF17C"/>
</linearGradient>
<linearGradient id="paint5_linear_4006_4915" x1="1.44434" y1="5.9022" x2="2.70408" y2="5.9022" gradientUnits="userSpaceOnUse">
<stop stop-color="#FCB815"/>
<stop offset="1" stop-color="#FBF17C"/>
</linearGradient>
<linearGradient id="paint6_linear_4006_4915" x1="1.15723" y1="6.89927" x2="2.43151" y2="6.89927" gradientUnits="userSpaceOnUse">
<stop stop-color="#FCB815"/>
<stop offset="1" stop-color="#FBF17C"/>
</linearGradient>
<linearGradient id="paint7_linear_4006_4915" x1="0.943359" y1="7.99893" x2="2.25561" y2="7.99893" gradientUnits="userSpaceOnUse">
<stop stop-color="#FCB815"/>
<stop offset="1" stop-color="#FBF17C"/>
</linearGradient>
<linearGradient id="paint8_linear_4006_4915" x1="0.914062" y1="9.13755" x2="2.20714" y2="9.13755" gradientUnits="userSpaceOnUse">
<stop stop-color="#FCB815"/>
<stop offset="1" stop-color="#FBF17C"/>
</linearGradient>
<linearGradient id="paint9_linear_4006_4915" x1="1.03125" y1="10.1659" x2="2.28162" y2="10.1659" gradientUnits="userSpaceOnUse">
<stop stop-color="#FCB815"/>
<stop offset="1" stop-color="#FBF17C"/>
</linearGradient>
<linearGradient id="paint10_linear_4006_4915" x1="1.24512" y1="11.2167" x2="2.47252" y2="11.2167" gradientUnits="userSpaceOnUse">
<stop stop-color="#FCB815"/>
<stop offset="1" stop-color="#FBF17C"/>
</linearGradient>
<linearGradient id="paint11_linear_4006_4915" x1="1.53228" y1="12.2069" x2="2.76364" y2="12.2069" gradientUnits="userSpaceOnUse">
<stop stop-color="#FCB815"/>
<stop offset="1" stop-color="#FBF17C"/>
</linearGradient>
<linearGradient id="paint12_linear_4006_4915" x1="2.00689" y1="13.2216" x2="3.19143" y2="13.2216" gradientUnits="userSpaceOnUse">
<stop stop-color="#FCB815"/>
<stop offset="1" stop-color="#FBF17C"/>
</linearGradient>
<linearGradient id="paint13_linear_4006_4915" x1="2.55469" y1="14.1746" x2="3.73163" y2="14.1746" gradientUnits="userSpaceOnUse">
<stop stop-color="#FCB815"/>
<stop offset="1" stop-color="#FBF17C"/>
</linearGradient>
<linearGradient id="paint14_linear_4006_4915" x1="3.36523" y1="15.2616" x2="4.56498" y2="15.2616" gradientUnits="userSpaceOnUse">
<stop stop-color="#FCB815"/>
<stop offset="1" stop-color="#FBF17C"/>
</linearGradient>
<linearGradient id="paint15_linear_4006_4915" x1="4.38379" y1="16.1474" x2="5.48797" y2="16.1474" gradientUnits="userSpaceOnUse">
<stop stop-color="#FCB815"/>
<stop offset="1" stop-color="#FBF17C"/>
</linearGradient>
<linearGradient id="paint16_linear_4006_4915" x1="5.43848" y1="16.8817" x2="6.48568" y2="16.8817" gradientUnits="userSpaceOnUse">
<stop stop-color="#FCB815"/>
<stop offset="1" stop-color="#FBF17C"/>
</linearGradient>
<linearGradient id="paint17_linear_4006_4915" x1="4.6748" y1="1.61216" x2="5.70977" y2="1.61216" gradientUnits="userSpaceOnUse">
<stop stop-color="#FCB815"/>
<stop offset="1" stop-color="#FBF17C"/>
</linearGradient>
<linearGradient id="paint18_linear_4006_4915" x1="5.60259" y1="1.13169" x2="6.40975" y2="1.13169" gradientUnits="userSpaceOnUse">
<stop stop-color="#FCB815"/>
<stop offset="1" stop-color="#FBF17C"/>
</linearGradient>
<linearGradient id="paint19_linear_4006_4915" x1="6.55957" y1="0.701079" x2="7.21575" y2="0.701079" gradientUnits="userSpaceOnUse">
<stop stop-color="#FCB815"/>
<stop offset="1" stop-color="#FBF17C"/>
</linearGradient>
<linearGradient id="paint20_linear_4006_4915" x1="3.51074" y1="2.78213" x2="4.46946" y2="2.78213" gradientUnits="userSpaceOnUse">
<stop stop-color="#FCB815"/>
<stop offset="1" stop-color="#FBF17C"/>
</linearGradient>
<linearGradient id="paint21_linear_4006_4915" x1="2.74902" y1="3.4813" x2="3.92294" y2="3.4813" gradientUnits="userSpaceOnUse">
<stop stop-color="#FCB815"/>
<stop offset="1" stop-color="#FBF17C"/>
</linearGradient>
<linearGradient id="paint22_linear_4006_4915" x1="2.20605" y1="4.27437" x2="3.422" y2="4.27437" gradientUnits="userSpaceOnUse">
<stop stop-color="#FCB815"/>
<stop offset="1" stop-color="#FBF17C"/>
</linearGradient>
<linearGradient id="paint23_linear_4006_4915" x1="5.62012" y1="8.60155" x2="14.9533" y2="8.60155" gradientUnits="userSpaceOnUse">
<stop stop-color="#F58220"/>
<stop offset="0.238" stop-color="#F5851F"/>
<stop offset="0.42" stop-color="#F68E1C"/>
<stop offset="0.584" stop-color="#F79F17"/>
<stop offset="0.738" stop-color="#F9B611"/>
<stop offset="0.882" stop-color="#FCD308"/>
<stop offset="1" stop-color="#FFF200"/>
</linearGradient>
<linearGradient id="paint24_linear_4006_4915" x1="10.742" y1="16.9165" x2="5.25923" y2="0.991905" gradientUnits="userSpaceOnUse">
<stop stop-color="#FBF17C"/>
<stop offset="0.303" stop-color="#FBEF79"/>
<stop offset="0.486" stop-color="#FBEA71"/>
<stop offset="0.636" stop-color="#FBE362"/>
<stop offset="0.769" stop-color="#FBD74E"/>
<stop offset="0.889" stop-color="#FBC934"/>
<stop offset="1" stop-color="#FCB815"/>
</linearGradient>
</defs>
</svg>
