<svg width="13" height="12" viewBox="0 0 13 12" fill="none" xmlns="http://www.w3.org/2000/svg">
<path fill-rule="evenodd" clip-rule="evenodd" d="M8.91195 8.81519C8.14971 9.40792 7.19189 9.76089 6.15165 9.76089C3.66567 9.76089 1.65039 7.74504 1.65039 5.25837C1.65039 2.7717 3.66567 0.755859 6.15165 0.755859C8.63762 0.755859 10.6529 2.7717 10.6529 5.25837C10.6529 6.2988 10.3001 7.25681 9.70764 8.01923L11.9854 10.2948C12.2052 10.5145 12.2054 10.8709 11.9858 11.0908C11.7662 11.3107 11.41 11.3109 11.1901 11.0913L8.91195 8.81519ZM9.52759 5.25837C9.52759 7.12337 8.01613 8.63526 6.15165 8.63526C4.28717 8.63526 2.7757 7.12337 2.7757 5.25837C2.7757 3.39337 4.28717 1.88149 6.15165 1.88149C8.01613 1.88149 9.52759 3.39337 9.52759 5.25837Z" fill="#3B322B"/>
</svg>
